<?xml version="1.0" encoding="utf-8"?>
<!-- Generator: Adobe Illustrator 21.0.0, SVG Export Plug-In . SVG Version: 6.00 Build 0)  -->
<svg version="1.1" xmlns="http://www.w3.org/2000/svg" xmlns:xlink="http://www.w3.org/1999/xlink" x="0px" y="0px"
	 viewBox="0 0 308 151" style="enable-background:new 0 0 308 151;" xml:space="preserve">
<style type="text/css">
	.st0{display:none;}
	.st1{display:inline;fill:#383838;}
	.st2{fill:#89D3E1;}
	.st3{fill:#FFFFFF;stroke:#89D3E1;stroke-width:2.5;stroke-linecap:round;stroke-miterlimit:10;}
	.st4{fill:url(#SVGID_1_);}
	.st5{fill:url(#SVGID_2_);}
	.st6{fill:url(#SVGID_3_);}
	.st7{fill:url(#SVGID_4_);}
	.st8{fill:url(#SVGID_5_);}
	.st9{fill:none;stroke:#FCFAFC;stroke-width:0.75;stroke-linecap:round;stroke-miterlimit:10;stroke-dasharray:2.104,2.104;}
	.st10{fill:none;stroke:#FCFAFC;stroke-width:0.5;stroke-miterlimit:10;}
</style>
<g id="background" class="st0">
	<rect x="-102.6" y="-53.1" class="st1" width="503.6" height="302.1"/>
</g>
<g id="streamlined3">
</g>
<g id="green_circles_x2C__etc">
</g>
<g id="white_circles">
	<g>
		<g>
			<g>
				<path class="st2" d="M36.6,123.8c-5,0-9.3-3.9-9.1-8.8c0.1-1.4,2.5-1.6,2.5,0c0,3.7,3.1,6.2,6.5,6.2c4.9,0,8.3-3.2,8.5-8.2
					c-0.1-2.6-1-4.4-4.1-10c-0.4,0.4-16.9,19.3-17.3,19.7c-0.2,0.3-0.6,0.5-1,0.5c-0.3,0-0.7-0.1-0.9-0.3c-0.3-0.2-0.4-0.7-0.4-1
					c0-0.2,0.1-0.5,0.3-0.8c0.7-0.8,17.4-19.9,18.1-20.6c-0.5-1.3-0.9-2.6-0.9-4c0-3.1,1.9-5.8,4.4-5.8c1.7,0,2.8,1.4,2.9,3.1
					c0,2.4-1.5,5-3.4,7.1c3.1,5.8,4.7,7.9,4.8,11.9C47.5,119.6,42.7,123.8,36.6,123.8z M43.6,94.1c0-0.8-0.7-0.7-1.3-0.1
					c-0.7,0.7-0.9,1.8-0.9,2.6c0,0.7,0.1,1.3,0.3,1.9C42.7,97.3,43.6,95.4,43.6,94.1z"/>
				<path class="st2" d="M66.8,110.6c0,0.2-0.1,0.4-0.1,0.5c-3.5,7.5-6.8,12.6-12.4,12.6c-2.9,0-4.4-2.2-4.4-5
					c0-2.2,1.5-7.4,3.4-12.4l3.1-8.6h-3.8c-0.7,0-1.3-0.5-1.3-1.3c0-0.7,0.5-1.3,1.3-1.3h4.6c0.1-0.2,3.1-8.7,3.1-8.9
					c0.2-0.5,0.7-0.8,1.2-0.8c0.9,0,1.5,0.9,1.2,1.7c0.2-0.4-2.4,7-2.8,8.1h4c0.7,0,1.3,0.6,1.3,1.3c0,0.7-0.5,1.3-1.3,1.3H59
					c-0.4,1.1-1.4,3.9-3.4,9.5c-2.5,7-3.2,9.7-3.2,11.5c0,1.6,0.7,2.5,1.9,2.5c4.3,0,7.2-5,10-11.2c0.2-0.4,0.7-0.7,1.2-0.7
					c0.2,0,0.4,0.1,0.5,0.1C66.5,109.7,66.8,110.2,66.8,110.6z"/>
				<path class="st2" d="M88.9,110.6c0,0.2-0.1,0.4-0.1,0.5c-3.9,8.9-6.9,12.6-11,12.6h-0.1c-2.8,0-4.3-2.1-4.3-5
					c0-1.2,0.2-2.4,0.6-3.9c0.5-1.9,3.1-9.9,3.7-11.2c-4.6-1.5-5.2-1.7-6.5-2.4c-0.2,0.7-0.7,1.6-5.5,12.1c-0.2,0.5-0.7,0.7-1.1,0.7
					c-0.2,0-0.4-0.1-0.6-0.1c-0.4-0.2-0.7-0.7-0.7-1.1c0-0.2,0.1-0.4,0.1-0.5l4.8-10.4L69,100c-1.8-1.3-3.1-2.8-3.1-5
					c0-2.5,1.7-3.9,3.7-3.9c2.2,0,3.5,1.6,3.5,4c0,1-0.2,1.5-1,3.8c1.7,0.8,3.7,1.5,5.5,2.1c0.8,0.2,1.6,0.5,2.3,0.7
					c0.7,0.2,1,1,0.7,1.7c-0.8,2-3.7,10.6-4,12.1c-0.4,1.3-0.5,2.3-0.5,3.3c0,1.5,0.5,2.5,1.8,2.5c2.9,0,5.2-3.4,8.6-11.1
					c0.2-0.5,0.7-0.8,1.1-0.8c0.2,0,0.4,0.1,0.5,0.1C88.6,109.7,88.9,110.2,88.9,110.6z M69.6,93.5c-0.8,0-1.1,0.5-1.1,1.1
					c0,1,0.5,2,1.4,2.8c0.3-0.8,0.7-1.9,0.7-2.5C70.6,93.9,70.1,93.5,69.6,93.5z"/>
				<path class="st2" d="M107.9,110.7c0,0.2-0.1,0.3-0.1,0.5c-3.9,8.6-8.5,12.6-14.5,12.6c-5,0-8-3.3-7.9-8.2
					c0.4-7.7,6.6-20.2,13.7-20.2c3,0,5.1,1.6,5.1,4.4c0,6.4-8.9,10.2-15.6,11.8c-0.4,1.6-0.6,2.7-0.7,4c-0.1,3.4,1.8,5.5,5.4,5.6
					c4.9,0.1,8.8-3.4,12.1-11.1c0.3-0.6,1-0.9,1.7-0.7C107.6,109.7,107.9,110.2,107.9,110.7z M101.7,99.8c0-1.6-1.3-1.9-2.6-1.9
					c-4.1,0-7.6,6.2-9.5,10.9C94.6,107.2,101.7,104.3,101.7,99.8z"/>
				<path class="st2" d="M132.1,110.6c0,0.2-0.1,0.4-0.1,0.5l-0.1,0.2c-2.3,5-5.5,12.4-10.9,12.4c-2.9,0-4.3-2.1-4.3-5
					c-2.4,3.4-4.9,5-7.5,5c-3.4,0-4.9-2.9-4.9-6.5c0-7.9,6.1-21.9,13.3-21.9c2.5,0,4.4,1,5.5,3.2c0.4-1,0.7-1.9,1-2.7
					c0.2-0.5,0.7-0.8,1.2-0.8c1,0,1.4,1,1.1,1.7l-3,8c-2.2,6.1-4.1,11.3-4.1,13.9c0,1.8,0.5,2.5,1.8,2.5c3.7,0,6.6-6.5,8.6-10.9
					l0.1-0.2c0.2-0.5,0.7-0.8,1.1-0.8c0.2,0,0.4,0.1,0.5,0.1C131.8,109.7,132.1,110.2,132.1,110.6z M119.9,106.1l1.4-3.8
					c-0.1-2.8-1.7-4.4-3.8-4.4c-5.5,0.1-10.6,13-10.7,19c0,2.6,0.5,4.4,2.3,4.4C114,121.3,117.5,112.3,119.9,106.1z"/>
				<path class="st2" d="M169,111.4c-2.2,5-5.5,12.4-10.9,12.4c-2.9,0-4.4-2.1-4.4-5c0-5.5,4.7-12.9,4.7-17.8c0-1.7-0.7-3.1-3.1-3.1
					c-3.5,0-8.2,7.9-9.9,12.7c-0.1,0.4-4.1,12.1-4.1,12c-0.2,0.5-0.7,0.8-1.2,0.8c-0.9,0-1.5-0.9-1.2-1.7c0.1-0.2,4-11.9,4.1-12.1
					c1.3-3.7,2.2-6.4,2.2-8.5c0-2.2-0.8-3.4-3-3.4c-1.7,0-3.5,1.9-5.2,4.4c-1.1,1.6-4.7,8.2-5,9.2l-4.1,11.6c-0.2,0.7-1,1-1.6,0.8
					c-0.7-0.2-1-1-0.8-1.6c3.1-8.6,6.2-17.3,9.2-25.9c0.2-0.5,0.7-0.8,1.2-0.8c0.9,0,1.5,0.9,1.2,1.7c-0.2,0.5-0.4,1-0.6,1.6
					c1.7-2,3.7-3.4,5.7-3.4c3.6,0,5.5,2.3,5.5,5.5c1.7-2.8,4.8-5.5,7.6-5.5c4.3,0,5.6,2.5,5.6,5.6c0,5.8-4.6,12.7-4.6,17.8
					c0,1.7,0.5,2.5,1.8,2.5c2.9,0,5.3-3.5,8.6-11.1c0.2-0.5,0.7-0.8,1.2-0.8c0.6,0,1.3,0.6,1.3,1.3
					C169.1,110.8,169.1,110.9,169,111.4z"/>
				<path class="st2" d="M181.5,110.6c0,0.2-0.1,0.4-0.1,0.5c-3.5,7.5-6.8,12.6-12.4,12.6c-2.9,0-4.4-2.2-4.4-5
					c0-1.7,0.6-3.9,2.1-8.6c1.6-4.7,3.4-9.8,5.2-14.8l3.1-9.1c0.2-0.7,1-1,1.6-0.8c0.7,0.2,1,1,0.8,1.6l-3.1,9.1
					c-1.7,4.8-3.4,9.6-5.2,14.7c-1.3,4.1-2,6.8-2,7.9c0,1.6,0.7,2.5,1.9,2.5c4.3,0,7.2-5,10-11.2c0.2-0.4,0.7-0.7,1.2-0.7
					c0.2,0,0.4,0.1,0.5,0.1C181.2,109.7,181.5,110.2,181.5,110.6z"/>
				<path class="st2" d="M192.5,110.6c0,0.2-0.1,0.4-0.1,0.5c-2.9,6.5-6,12.6-11,12.6c-2.9,0-4.4-2.3-4.3-5
					c0.2-4.7,4.4-15.7,7.1-22.5c0.2-0.5,0.7-0.8,1.1-0.8c0.8,0,1.6,0.6,1.2,1.6c-5.8,16.4-6.9,19.1-6.9,21.7c0,1.7,0.5,2.5,1.8,2.5
					c3.7,0,6.5-6.2,8.7-11.1c0.2-0.5,0.7-0.8,1.2-0.8c0.2,0,0.3,0.1,0.5,0.1C192.2,109.7,192.5,110.2,192.5,110.6z M185.7,90.3
					c0-1.1,1-2,2.1-2c1.1,0,2,0.9,2,2c0,1.1-0.9,2-2,2C186.7,92.3,185.7,91.4,185.7,90.3z"/>
				<path class="st2" d="M216.5,110.6c0,0.2-0.1,0.4-0.1,0.5c-4.1,9.1-6.9,12.6-11,12.6c-2.9,0-4.3-2.1-4.3-5
					c0-5.6,4.7-12.6,4.7-17.8c0-1.7-0.8-3.1-3.1-3.1c-3.7,0-8.2,8.1-10.1,13.2l-4.2,11.9c-0.2,0.7-1,1-1.6,0.8
					c-0.7-0.2-1-0.9-0.8-1.6c3.1-8.6,6.9-19.5,9.2-25.9c0.2-0.5,0.7-0.8,1.2-0.8c0.9,0,1.5,0.9,1.2,1.7l-0.5,1.2
					c1.7-1.8,3.6-2.9,5.6-2.9c4.3,0,5.6,2.5,5.6,5.6c0,5.3-4.7,13.2-4.7,17.8c0,1.7,0.5,2.5,1.8,2.5c2.8,0,5-3.2,8.6-11.1
					c0.2-0.5,0.7-0.8,1.1-0.8c0.2,0,0.4,0.1,0.5,0.1C216.2,109.7,216.5,110.2,216.5,110.6z"/>
				<path class="st2" d="M235.5,110.7c0,0.2-0.1,0.3-0.1,0.5c-3.9,8.6-8.5,12.6-14.5,12.6c-5,0-8-3.3-7.9-8.2
					c0.4-7.7,6.6-20.2,13.7-20.2c3,0,5.1,1.6,5.1,4.4c0,6.4-8.9,10.2-15.6,11.8c-0.4,1.6-0.6,2.7-0.7,4c-0.1,3.4,1.8,5.5,5.4,5.6
					c4.9,0.1,8.8-3.4,12.1-11.1c0.3-0.6,1-0.9,1.7-0.7C235.2,109.7,235.5,110.2,235.5,110.7z M229.3,99.8c0-1.6-1.3-1.9-2.6-1.9
					c-4.1,0-7.6,6.2-9.5,10.9C222.1,107.2,229.3,104.3,229.3,99.8z"/>
				<path class="st2" d="M254.5,119.5c-1.6,3.3-3.1,4.3-5.7,4.3c-2.8,0-4.4-1.9-4.4-5.3c-2.1,3-4.6,5.3-7.6,5.3
					c-3.4,0-4.9-2.9-4.9-6.5c0-7.9,6-21.9,13.3-21.9c2.7,0,4.4,1.2,5.4,3.1l1.1-3.1l3.2-9.2c0.2-0.5,0.7-0.8,1.1-0.8
					c1,0,1.4,1,1.2,1.7c-0.6,1.7-7.7,22.1-8.3,23.8c-0.9,2.8-2,6.3-2,7.9c0,1.4,0.7,2.5,2.3,2.5c1.5,0,2.3-0.9,3.3-3.2
					c0.2-0.4,0.8-1,1.7-0.6C255,117.8,254.9,118.8,254.5,119.5z M247.5,106.1c0.5-1.3,1-2.5,1.4-3.4c0.1-0.2,0.1-0.3,0.1-0.4
					c-0.1-2.8-1.5-4.4-3.8-4.4c-5.5,0.2-10.6,13-10.7,19c0,2.6,0.5,4.4,2.3,4.4C241.6,121.3,245.1,112.3,247.5,106.1z"/>
			</g>
		</g>
		<path class="st3" d="M255.7,114.5c0.4-0.7,0.4-0.7,1.6-3.1"/>
		<g>
			<path class="st2" d="M271.9,115.4c-1.4,0.8-2.9,1.5-4.4,2c4.6,1,7.7,4.3,7.8,8.9c0,8.1-6.8,14.1-14.6,14.1
				c-6.1-0.1-9.6-3.4-9.6-8.9c0-2,0.8-3.8,2.2-5.3c0.2-0.2,0.5-0.4,0.8-0.4c0.7,0,1.3,0.5,1.3,1.3c0,0.4-0.1,0.7-0.4,1
				c-0.9,0.8-1.4,2.5-1.4,3.5c0,4.1,2.6,6.2,7.1,6.3c6.7,0,12-5.4,12-11.5c0-5.1-4.5-6.9-10-6.9c-1.1,0-1.8-0.8-1.8-1.4
				c0-1,0.4-1.4,1.5-1.7c2.7-0.7,5.7-1.7,8.3-3.2c3-1.8,4.9-4.4,4.9-7.5c0-3.7-3.2-5.9-6.6-5.9c-1.8,0-3.3,0.6-4.6,1.6
				c-1.7,1.4-2.9,3.5-3.7,5.9c-0.2,0.7-0.8,1-1.6,0.8c-0.7-0.2-1-0.9-0.8-1.6c0.8-2.8,2.4-5.4,4.6-7.1c1.6-1.3,3.7-2.1,6-2.1
				c5.5,0,9.2,3.5,9.2,8.4C278.1,109.7,275.7,113,271.9,115.4z"/>
		</g>
		<polygon class="st2" points="255.3,124.4 256,131.5 249.8,128.6 		"/>
		<linearGradient id="SVGID_1_" gradientUnits="userSpaceOnUse" x1="156.8327" y1="44.5132" x2="176.1107" y2="44.5132">
			<stop  offset="0" style="stop-color:#2C933C"/>
			<stop  offset="1" style="stop-color:#B5D334"/>
		</linearGradient>
		<circle class="st4" cx="166.5" cy="44.5" r="9.6"/>
		<linearGradient id="SVGID_2_" gradientUnits="userSpaceOnUse" x1="146.593" y1="32.5485" x2="170.5225" y2="32.5485">
			<stop  offset="0" style="stop-color:#2C933C"/>
			<stop  offset="1" style="stop-color:#B5D334"/>
		</linearGradient>
		<circle class="st5" cx="158.6" cy="32.5" r="12"/>
		<linearGradient id="SVGID_3_" gradientUnits="userSpaceOnUse" x1="170.9176" y1="23.3316" x2="182.7036" y2="23.3316">
			<stop  offset="0" style="stop-color:#2C933C"/>
			<stop  offset="1" style="stop-color:#B5D334"/>
		</linearGradient>
		<circle class="st6" cx="176.8" cy="23.3" r="5.9"/>
		
			<linearGradient id="SVGID_4_" gradientUnits="userSpaceOnUse" x1="141.8951" y1="48.4847" x2="173.2843" y2="48.4847" gradientTransform="matrix(0.9836 -0.1804 0.1804 0.9836 -24.7168 25.2558)">
			<stop  offset="0" style="stop-color:#00673A"/>
			<stop  offset="1" style="stop-color:#B5D334"/>
		</linearGradient>
		<circle class="st7" cx="139" cy="44.5" r="15.7"/>
		
			<linearGradient id="SVGID_5_" gradientUnits="userSpaceOnUse" x1="115.6421" y1="53.8582" x2="134.9201" y2="53.8582" gradientTransform="matrix(0.9458 0.3247 -0.3247 0.9458 55.2336 -39.6006)">
			<stop  offset="0" style="stop-color:#2C933C"/>
			<stop  offset="1" style="stop-color:#B5D334"/>
		</linearGradient>
		<circle class="st8" cx="156.2" cy="52" r="9.6"/>
		<g>
			<circle class="st9" cx="170" cy="26.6" r="6"/>
		</g>
		<circle class="st10" cx="160.8" cy="44.5" r="0"/>
		<circle class="st10" cx="155.6" cy="37.2" r="1.7"/>
		<circle class="st10" cx="184.3" cy="28.5" r="1.5"/>
		<circle class="st10" cx="167.4" cy="52" r="3.9"/>
		<circle class="st10" cx="152" cy="55" r="0"/>
		<circle class="st10" cx="124.6" cy="51.7" r="2.5"/>
		<circle class="st10" cx="130.5" cy="35.3" r="1.6"/>
		<circle class="st10" cx="136.2" cy="38.3" r="1.6"/>
		<circle class="st10" cx="162.3" cy="16.6" r="0.9"/>
		<circle class="st10" cx="174.3" cy="17.4" r="0"/>
		<circle class="st10" cx="148.3" cy="20.8" r="1.7"/>
		<circle class="st10" cx="148.6" cy="47" r="0"/>
	</g>
</g>
</svg>
